<?xml version="1.0" standalone="no"?>
<!DOCTYPE svg PUBLIC "-//W3C//DTD SVG 20010904//EN"
 "http://www.w3.org/TR/2001/REC-SVG-20010904/DTD/svg10.dtd">
<svg version="1.0" xmlns="http://www.w3.org/2000/svg"
 width="328.000000pt" height="122.000000pt" viewBox="0 0 328.000000 122.000000"
 preserveAspectRatio="xMidYMid meet">

<g transform="translate(0.000000,122.000000) scale(0.100000,-0.100000)"
fill="#000000" stroke="none">
<path d="M471 1149 c-20 -8 -23 -14 -17 -42 9 -47 81 -189 110 -216 25 -24 25
-24 -9 72 -19 52 -37 118 -41 146 -7 55 -7 55 -43 40z"/>
<path d="M708 853 c-16 -4 -15 -7 4 -37 l22 -33 25 29 c13 17 34 34 45 38 15
6 8 9 -29 8 -27 0 -58 -2 -67 -5z"/>
<path d="M621 808 c-96 -99 -154 -273 -166 -495 -7 -131 -7 -132 20 -182 15
-27 38 -60 51 -72 l23 -21 6 38 c23 136 66 203 210 322 28 23 28 23 21 115 -6
95 -22 164 -50 230 -21 47 -58 107 -68 107 -4 0 -25 -19 -47 -42z"/>
<path d="M453 823 c-23 -4 -29 -19 -15 -40 5 -8 13 -2 24 18 9 16 16 28 15 28
-1 -1 -12 -4 -24 -6z"/>
<path d="M920 563 l0 -123 30 0 c30 0 30 1 30 53 0 59 -21 142 -44 172 -14 18
-15 9 -16 -102z"/>
<path d="M226 539 c-3 -17 -6 -44 -6 -60 0 -24 4 -29 25 -29 19 0 25 5 25 23
0 12 3 39 6 60 6 35 5 37 -18 37 -21 0 -27 -6 -32 -31z"/>
<path d="M938 333 c-16 -4 -18 -18 -18 -116 l0 -111 30 29 c29 28 30 32 30
117 0 91 -1 92 -42 81z"/>
<path d="M360 304 c-14 -7 -33 -15 -42 -18 -14 -4 -18 -16 -18 -56 l0 -50 65
0 64 0 -14 41 c-8 23 -15 52 -15 65 0 30 -9 34 -40 18z"/>
<path d="M739 159 c-7 -18 -28 -52 -46 -76 -22 -29 -29 -45 -21 -47 7 -3 27
-9 44 -14 l31 -10 6 86 c4 47 5 88 3 89 -2 2 -9 -11 -17 -28z"/>
</g>
</svg>
